<svg width="24" height="24" viewBox="0 0 24 24" fill="none" xmlns="http://www.w3.org/2000/svg">
<path d="M20.5781 18.8594C21.1055 19.4219 21.1055 20.3008 20.5781 20.8633C20.0156 21.3906 19.1367 21.3906 18.5742 20.8633L14.3906 16.6445C12.9492 17.5938 11.1914 18.0859 9.29297 17.8398C6.05859 17.3828 3.45703 14.7461 3.03516 11.5469C2.4375 6.76562 6.48047 2.72266 11.2617 3.32031C14.4609 3.74219 17.0977 6.34375 17.5547 9.57812C17.8008 11.4766 17.3086 13.2344 16.3594 14.6406L20.5781 18.8594ZM5.77734 10.5625C5.77734 13.0586 7.78125 15.0625 10.2773 15.0625C12.7383 15.0625 14.7773 13.0586 14.7773 10.5625C14.7773 8.10156 12.7383 6.0625 10.2773 6.0625C7.78125 6.0625 5.77734 8.10156 5.77734 10.5625Z" fill="#0066B3"/>
</svg>
